# xmcd
#
# Track frame offsets: 
#        150
#        12577
#        22630
#        33764
#        43764
#        54657
#        67144
#        75430
#        85872
#        96070
#        105378
#        116119
#        124886
#        137350
#        149023
#
# Disc length: 2115 seconds
#
# Revision: 0
# Processed by: cddbd v1.5.2PL0 Copyright (c) Steve Scherf et al.
# Submitted via: ExactAudioCopy v0.95b4
#
DISCID=c208410f
DTITLE=Johnny Cash - The Very Best of Johnny Cash (Vol 1)
DYEAR=2000
DGENRE=Country
TTITLE0=I Walk the Line
TTITLE1=Hey Porter
TTITLE2=Oh Lonesome Me
TTITLE3=Get Rhythm
TTITLE4=Cry, Cry, Cry
TTITLE5=Folsom Prison Blues
TTITLE6=Guess Things Happen That Way
TTITLE7=You Win Again
TTITLE8=The Ways of a Woman in Love
TTITLE9=Luther Played the Boogie
TTITLE10=Train of Love
TTITLE11=Two Timin' Woman
TTITLE12=Next in Line
TTITLE13=Wide Open Road
TTITLE14=Rock Island Line
EXTD=
EXTT0=
EXTT1=
EXTT2=
EXTT3=
EXTT4=
EXTT5=
EXTT6=
EXTT7=
EXTT8=
EXTT9=
EXTT10=
EXTT11=
EXTT12=
EXTT13=
EXTT14=
PLAYORDER=
